<?xml version="1.0" standalone="no"?>
<!DOCTYPE svg PUBLIC "-//W3C//DTD SVG 20010904//EN"
 "http://www.w3.org/TR/2001/REC-SVG-20010904/DTD/svg10.dtd">
<svg version="1.0" xmlns="http://www.w3.org/2000/svg"
 width="2000.000000pt" height="2000.000000pt" viewBox="0 0 2000.000000 2000.000000"
 preserveAspectRatio="xMidYMid meet">
<metadata>
Created by potrace 1.11, written by Peter Selinger 2001-2013
</metadata>
<g transform="translate(0.000000,2000.000000) scale(0.100000,-0.100000)"
fill="#000000" stroke="none">
<path d="M11675 16861 c-386 -39 -489 -52 -740 -97 -711 -126 -1365 -340
-2000 -654 -476 -235 -724 -416 -870 -635 -62 -93 -83 -138 -135 -291 -35
-102 -45 -121 -153 -266 -212 -286 -294 -494 -318 -813 -77 -1002 476 -1875
1429 -2254 255 -102 468 -146 782 -162 184 -10 228 -9 427 10 377 36 708 101
1155 230 97 28 802 269 1567 536 765 266 1453 502 1529 524 352 102 723 178
1101 226 301 39 461 44 576 20 305 -64 486 -347 485 -760 -1 -304 -129 -565
-419 -855 -522 -521 -1518 -956 -2711 -1184 -384 -73 -627 -104 -1091 -141
-186 -15 -334 -32 -367 -41 -127 -37 -270 -117 -442 -248 -109 -82 -124 -85
-251 -46 -216 66 -626 232 -1289 523 -877 384 -1113 474 -1610 615 -597 170
-1452 361 -1955 436 -492 74 -759 89 -1434 83 l-556 -4 -584 -52 c-516 -45
-623 -58 -915 -106 -468 -78 -643 -118 -906 -204 -176 -58 -252 -96 -305 -151
-37 -38 -40 -45 -40 -100 0 -75 17 -97 194 -249 72 -62 130 -115 129 -117 -2
-1 -21 1 -43 6 -22 5 -110 10 -195 10 -131 0 -162 -3 -197 -19 -103 -47 -80
-146 69 -306 216 -231 507 -384 1043 -549 762 -233 1596 -422 2194 -496 118
-14 224 -20 376 -20 l212 0 344 -75 c614 -133 847 -197 1304 -360 379 -136
458 -168 1178 -489 1406 -626 1648 -728 2071 -872 469 -160 1027 -282 1481
-324 205 -19 651 -12 970 15 909 76 1583 205 2240 429 980 333 1825 932 2397
1700 483 646 842 1465 972 2212 65 373 93 854 67 1144 -79 880 -375 1593 -866
2086 -107 108 -149 136 -277 191 -75 31 -94 45 -208 157 -434 424 -964 673
-1568 735 -140 15 -291 14 -517 -4 -479 -37 -815 -104 -1238 -246 -505 -170
-943 -386 -1897 -936 -512 -295 -572 -329 -791 -443 -870 -456 -1592 -623
-2154 -499 -124 27 -255 71 -255 85 0 16 142 149 231 216 315 236 675 438
1180 663 374 166 580 246 1434 555 231 84 447 166 479 182 297 150 734 510
1040 857 218 249 290 374 309 539 5 41 5 42 -25 42 -17 0 -67 9 -112 20 -190
46 -271 52 -721 55 l-430 4 -380 -38z"/>
</g>
</svg>
